<?xml version="1.0" encoding="UTF-8" standalone="no"?>
<!-- Created with Inkscape (http://www.inkscape.org/) -->

<svg
   width="16"
   height="16"
   viewBox="0 0 4.2333332 4.2333335"
   version="1.1"
   id="svg3149"
   inkscape:version="1.2.1 (9c6d41e410, 2022-07-14, custom)"
   sodipodi:docname="plugin_icon.svg"
   xml:space="preserve"
   xmlns:inkscape="http://www.inkscape.org/namespaces/inkscape"
   xmlns:sodipodi="http://sodipodi.sourceforge.net/DTD/sodipodi-0.dtd"
   xmlns="http://www.w3.org/2000/svg"
   xmlns:svg="http://www.w3.org/2000/svg"><sodipodi:namedview
     id="namedview3151"
     pagecolor="#505050"
     bordercolor="#eeeeee"
     borderopacity="1"
     inkscape:pageshadow="0"
     inkscape:pageopacity="0"
     inkscape:pagecheckerboard="0"
     inkscape:document-units="px"
     showgrid="false"
     units="px"
     width="16px"
     inkscape:zoom="11.313709"
     inkscape:cx="22.892582"
     inkscape:cy="21.213203"
     inkscape:window-width="1920"
     inkscape:window-height="1053"
     inkscape:window-x="0"
     inkscape:window-y="0"
     inkscape:window-maximized="1"
     inkscape:current-layer="layer1"
     inkscape:lockguides="true"
     inkscape:showpageshadow="false"
     inkscape:deskcolor="#505050"
     shape-rendering="auto" /><defs
     id="defs3146" /><g
     inkscape:label="Layer 1"
     inkscape:groupmode="layer"
     id="layer1"><path
       id="path330"
       style="fill:#ffffff;stroke:none;stroke-width:0.220549;stroke-linecap:round;stroke-linejoin:round;stroke-opacity:1;paint-order:stroke fill markers"
       d="M 3.6162436,2.1368789 C 3.5100794,2.3644222 2.7442499,2.5409495 1.8154058,2.5409495 1.3566569,2.5409022 0.9374651,2.4978333 0.61796568,2.4266879 A 1.813308,0.45829569 0 0 0 0.60451785,2.4807024 1.813308,0.45829569 0 0 0 2.417634,2.939307 1.813308,0.45829569 0 0 0 4.231335,2.4807024 1.813308,0.45829569 0 0 0 3.6162436,2.1368789 Z" /><path
       id="rect992"
       style="fill:#ffffff;stroke:none;stroke-width:0.229952;stroke-linecap:round;stroke-linejoin:round;stroke-opacity:1;paint-order:stroke fill markers"
       d="m 0.60450245,3.780856 h 0.003101 c 0.0125959,0.2507476 0.82022665,0.4523751 1.81242225,0.4524773 1.0014621,0 1.8133077,-0.2051858 1.813308,-0.4582957 -4.54e-5,-0.00732 -7.835e-4,-0.01462 -0.00222,-0.02193 V 2.8664306 C 4.2166041,3.1168278 3.4095312,3.3179657 2.4186958,3.3180131 1.4172335,3.3180611 0.60538792,3.0558076 0.60494519,2.9265673 c 0,0.019222 -4.4274e-4,0.8542887 -4.4274e-4,0.8542887 z"
       sodipodi:nodetypes="ccccccscc" /><ellipse
       style="fill:#ffffff;stroke:none;stroke-width:0.220549;stroke-linecap:round;stroke-linejoin:round;stroke-opacity:1;paint-order:stroke fill markers"
       id="ellipse2604"
       cx="1.8133755"
       cy="0.4582957"
       rx="1.813308"
       ry="0.4582957" /><path
       id="path2606"
       style="fill:#ffffff;stroke:none;stroke-width:0.229952;stroke-linecap:round;stroke-linejoin:round;stroke-opacity:1;paint-order:stroke fill markers"
       d="m 0,1.7681745 h 0.0031001 c 0.01259632,0.2507475 0.82022714,0.452375 1.8124227,0.4524773 1.0014622,0 1.8133077,-0.2051859 1.813308,-0.4582957 -4.54e-5,-0.00732 -7.835e-4,-0.01462 -0.00222,-0.02193 V 0.85374897 C 3.6121016,1.1041462 2.8050287,1.3052841 1.8141933,1.3053315 0.81273101,1.3053795 8.8546e-4,1.043126 4.4273e-4,0.91388569 4.4273e-4,0.93310719 0,1.7681745 0,1.7681745 Z"
       sodipodi:nodetypes="ccccccscc" /></g></svg>
