<?xml version="1.0" encoding="UTF-8" standalone="no"?>
<!-- Created with Inkscape (http://www.inkscape.org/) -->

<svg
   width="16"
   height="16"
   viewBox="0 0 4.2333332 4.2333335"
   version="1.1"
   id="svg3149"
   inkscape:version="1.2.1 (9c6d41e410, 2022-07-14, custom)"
   sodipodi:docname="Remember.svg"
   xml:space="preserve"
   xmlns:inkscape="http://www.inkscape.org/namespaces/inkscape"
   xmlns:sodipodi="http://sodipodi.sourceforge.net/DTD/sodipodi-0.dtd"
   xmlns="http://www.w3.org/2000/svg"
   xmlns:svg="http://www.w3.org/2000/svg"><sodipodi:namedview
     id="namedview3151"
     pagecolor="#505050"
     bordercolor="#eeeeee"
     borderopacity="1"
     inkscape:pageshadow="0"
     inkscape:pageopacity="0"
     inkscape:pagecheckerboard="0"
     inkscape:document-units="px"
     showgrid="false"
     units="px"
     width="16px"
     inkscape:zoom="1.1123813"
     inkscape:cx="-238.22767"
     inkscape:cy="-12.585613"
     inkscape:window-width="1920"
     inkscape:window-height="1053"
     inkscape:window-x="0"
     inkscape:window-y="0"
     inkscape:window-maximized="1"
     inkscape:current-layer="layer1"
     inkscape:lockguides="true"
     inkscape:showpageshadow="2"
     inkscape:deskcolor="#505050" /><defs
     id="defs3146" /><g
     inkscape:label="Layer 1"
     inkscape:groupmode="layer"
     id="layer1"><path
       id="rect3527"
       style="fill:#ffffff;stroke-width:0.211667;stroke-linecap:round;paint-order:stroke fill markers"
       d="M 0.90479618,1.9694652 H 2.692577 c 0.2079435,0.00244 0.2145698,0.331879 0.00589,0.3395463 L 1.8987988,2.3289589 C 1.7848252,2.3298283 1.782389,2.57185 1.8950769,2.5746604 L 2.8353854,2.574699 3.8460267,1.9735356 C 4.2101545,1.7636214 4.3109014,2.2423599 4.1686807,2.3540053 L 3.0948261,3.0703243 H 1.1555887 L 0,3.96875 V 2.6458333 Z"
       sodipodi:nodetypes="ccccccccccccc" /><path
       id="path5760"
       style="fill:#ffffff;fill-opacity:1;stroke:none;stroke-width:0.193344;stroke-linecap:round;stroke-linejoin:miter;stroke-dasharray:none;stroke-opacity:1;paint-order:stroke fill markers"
       d="m 2.5717788,0.6051829 a 0.79374999,0.79374999 0 0 0 -0.79375,0.7937501 0.79374999,0.79374999 0 0 0 0.094051,0.3741373 h 0.9596313 c 0.1561292,0.00183 0.2263839,0.143723 0.2067057,0.2671672 A 0.79374999,0.79374999 0 0 0 3.3655287,1.398933 0.79374999,0.79374999 0 0 0 2.5717788,0.6051829 Z" /></g></svg>
